name C:/MyDriveSym/Projects/mobilecap/Data\Session20210813_0002\mocap\ForceDataProcessed\walkingTS2_forces.mot
datacolumns 19
datarows 24
range 0.00000000 0.01150000
endheader 
time	R_ground_force_vx	R_ground_force_vy	R_ground_force_vz	R_ground_force_px	R_ground_force_py	R_ground_force_pz	R_ground_torque_x	R_ground_torque_y	R_ground_torque_z	L_ground_force_vx	L_ground_force_vy	L_ground_force_vz	L_ground_force_px	L_ground_force_py	L_ground_force_pz	L_ground_torque_x	L_ground_torque_y	L_ground_torque_z	
          0.00000000	       -127.90087100	        660.77081800	        -27.60998400	          0.16869400	          0.00600000	         -0.20862100	          0.00000000	         -0.98370800	          0.00000000	          0.00000000	          0.00000000	          0.00000000	          0.75484900	          0.00000000	         -0.25149900	          0.00000000	          0.00000000	          0.00000000	
          0.00050000	       -127.94564300	        661.17179800	        -27.75972300	          0.16869400	          0.00600000	         -0.20862100	          0.00000000	         -0.97477100	          0.00000000	          0.00000000	          0.00000000	          0.00000000	          0.75484900	          0.00000000	         -0.25149900	          0.00000000	          0.00000000	          0.00000000	
          0.00100000	       -127.99037900	        661.57590700	        -27.90928100	          0.16869400	          0.00600000	         -0.20862100	          0.00000000	         -0.96572500	          0.00000000	          0.00000000	          0.00000000	          0.00000000	          0.75484900	          0.00000000	         -0.25149900	          0.00000000	          0.00000000	          0.00000000	
          0.00150000	       -128.03507200	        661.98313600	        -28.05863300	          0.16869400	          0.00600000	         -0.20862100	          0.00000000	         -0.95657200	          0.00000000	          0.00000000	          0.00000000	          0.00000000	          0.75484900	          0.00000000	         -0.25149900	          0.00000000	          0.00000000	          0.00000000	
          0.00200000	       -128.07971300	        662.39347600	        -28.20775100	          0.16888400	          0.00600000	         -0.20854900	          0.00000000	         -0.94731000	          0.00000000	          0.00000000	          0.00000000	          0.00000000	          0.75484900	          0.00000000	         -0.25149900	          0.00000000	          0.00000000	          0.00000000	
          0.00250000	       -128.12429400	        662.80691700	        -28.35660800	          0.16907500	          0.00600000	         -0.20847700	          0.00000000	         -0.93794100	          0.00000000	          0.00000000	          0.00000000	          0.00000000	          0.75484900	          0.00000000	         -0.25149900	          0.00000000	          0.00000000	          0.00000000	
          0.00300000	       -128.16880800	        663.22345000	        -28.50517800	          0.16926800	          0.00600000	         -0.20840400	          0.00000000	         -0.92846300	          0.00000000	          0.00000000	          0.00000000	          0.00000000	          0.75484900	          0.00000000	         -0.25149900	          0.00000000	          0.00000000	          0.00000000	
          0.00350000	       -128.21324600	        663.64306200	        -28.65343400	          0.16946100	          0.00600000	         -0.20833200	          0.00000000	         -0.91887800	          0.00000000	          0.00000000	          0.00000000	          0.00000000	          0.75484900	          0.00000000	         -0.25149900	          0.00000000	          0.00000000	          0.00000000	
          0.00400000	       -128.25760000	        664.06574400	        -28.80134900	          0.16965600	          0.00600000	         -0.20825900	          0.00000000	         -0.90918600	          0.00000000	          0.00000000	          0.00000000	          0.00000000	          0.75484900	          0.00000000	         -0.25149900	          0.00000000	          0.00000000	          0.00000000	
          0.00450000	       -128.30186000	        664.49148200	        -28.94889400	          0.16985100	          0.00600000	         -0.20818600	          0.00000000	         -0.89938700	          0.00000000	          0.00000000	          0.00000000	          0.00000000	          0.75484900	          0.00000000	         -0.25149900	          0.00000000	          0.00000000	          0.00000000	
          0.00500000	       -128.34602000	        664.92026300	        -29.09604300	          0.17004800	          0.00600000	         -0.20811200	          0.00000000	         -0.88948100	          0.00000000	          0.00000000	          0.00000000	          0.00000000	          0.75484900	          0.00000000	         -0.25149900	          0.00000000	          0.00000000	          0.00000000	
          0.00550000	       -128.39007000	        665.35207400	        -29.24276800	          0.17024600	          0.00600000	         -0.20803900	          0.00000000	         -0.87946900	          0.00000000	          0.00000000	          0.00000000	          0.00000000	          0.75484900	          0.00000000	         -0.25149900	          0.00000000	          0.00000000	          0.00000000	
          0.00600000	       -128.43400000	        665.78689900	        -29.38904100	          0.17044500	          0.00600000	         -0.20796500	          0.00000000	         -0.86935100	          0.00000000	          0.00000000	          0.00000000	          0.00000000	          0.75484900	          0.00000000	         -0.25149900	          0.00000000	          0.00000000	          0.00000000	
          0.00650000	       -128.47780300	        666.22472500	        -29.53483500	          0.17064400	          0.00600000	         -0.20789100	          0.00000000	         -0.85912800	          0.00000000	          0.00000000	          0.00000000	          0.00000000	          0.75484900	          0.00000000	         -0.25149900	          0.00000000	          0.00000000	          0.00000000	
          0.00700000	       -128.52146900	        666.66553500	        -29.68012300	          0.17084500	          0.00600000	         -0.20781700	          0.00000000	         -0.84880000	          0.00000000	          0.00000000	          0.00000000	          0.00000000	          0.75484900	          0.00000000	         -0.25149900	          0.00000000	          0.00000000	          0.00000000	
          0.00750000	       -128.56498800	        667.10931300	        -29.82487600	          0.17104700	          0.00600000	         -0.20774300	          0.00000000	         -0.83836800	          0.00000000	          0.00000000	          0.00000000	          0.00000000	          0.75484900	          0.00000000	         -0.25149900	          0.00000000	          0.00000000	          0.00000000	
          0.00800000	       -128.60835200	        667.55604000	        -29.96906700	          0.17125000	          0.00600000	         -0.20766800	          0.00000000	         -0.82783300	          0.00000000	          0.00000000	          0.00000000	          0.00000000	          0.75484900	          0.00000000	         -0.25149900	          0.00000000	          0.00000000	          0.00000000	
          0.00850000	       -128.65155000	        668.00569900	        -30.11266800	          0.17145400	          0.00600000	         -0.20759400	          0.00000000	         -0.81719500	          0.00000000	          0.00000000	          0.00000000	          0.00000000	          0.75484900	          0.00000000	         -0.25149900	          0.00000000	          0.00000000	          0.00000000	
          0.00900000	       -128.69457300	        668.45827000	        -30.25565300	          0.17165800	          0.00600000	         -0.20751900	          0.00000000	         -0.80645500	          0.00000000	          0.00000000	          0.00000000	          0.00000000	          0.75484900	          0.00000000	         -0.25149900	          0.00000000	          0.00000000	          0.00000000	
          0.00950000	       -128.73741100	        668.91373500	        -30.39799300	          0.17186400	          0.00600000	         -0.20744400	          0.00000000	         -0.79561400	          0.00000000	          0.00000000	          0.00000000	          0.00000000	          0.75484900	          0.00000000	         -0.25149900	          0.00000000	          0.00000000	          0.00000000	
          0.01000000	       -128.78005400	        669.37207200	        -30.53966100	          0.17207100	          0.00600000	         -0.20736900	          0.00000000	         -0.78467200	          0.00000000	          0.00000000	          0.00000000	          0.00000000	          0.75484900	          0.00000000	         -0.25149900	          0.00000000	          0.00000000	          0.00000000	
          0.01050000	       -128.82249100	        669.83326000	        -30.68062900	          0.17227800	          0.00600000	         -0.20729400	          0.00000000	         -0.77363100	          0.00000000	          0.00000000	          0.00000000	          0.00000000	          0.75484900	          0.00000000	         -0.25149900	          0.00000000	          0.00000000	          0.00000000	
          0.01100000	       -128.86471300	        670.29727800	        -30.82087200	          0.17248700	          0.00600000	         -0.20721900	          0.00000000	         -0.76249100	          0.00000000	          0.00000000	          0.00000000	          0.00000000	          0.75484900	          0.00000000	         -0.25149900	          0.00000000	          0.00000000	          0.00000000	
          0.01150000	       -128.90670900	        670.76410000	        -30.96036200	          0.17269600	          0.00600000	         -0.20714300	          0.00000000	         -0.75125400	          0.00000000	          0.00000000	          0.00000000	          0.00000000	          0.75484900	          0.00000000	         -0.25149900	          0.00000000	          0.00000000	          0.00000000	
